# xmcd CD database file
#
# Track frame offsets:
#	150
#	17196
#	36185
#	55073
#	72839
#	93239
#	110636
#	130689
#	142763
#	161978
#	177223
#
# Disc length: 2610 seconds
#
# Revision: 0
# Processed by: cddbd v1.5.2PL0 Copyright (c) Steve Scherf et al.
# Submitted via: CDex 1.51
#
DISCID=900a300b
DTITLE=Ashley Renay - Beyond the Blue
DYEAR=2010
DGENRE=Country
TTITLE0=Touch the Moon
TTITLE1=Someday
TTITLE2=Fly Away
TTITLE3=Unavoidable Truth
TTITLE4=In the Way
TTITLE5=It's Always Something
TTITLE6=Don't Ask
TTITLE7=Oh Oh Oh
TTITLE8=Chilseled Name
TTITLE9=Goodnight Again
TTITLE10=Cotton Candy
EXTD=YEAR: 2010
EXTT0=
EXTT1=
EXTT2=
EXTT3=
EXTT4=
EXTT5=
EXTT6=
EXTT7=
EXTT8=
EXTT9=
EXTT10=
PLAYORDER=
